<?xml version="1.0" encoding="UTF-8"?>
<svg id="_Слой_2" data-name="Слой 2" xmlns="http://www.w3.org/2000/svg" viewBox="0 0 254.12 177.92">
  <defs>
    <style>
      .cls-1 {
        fill: #fff;
      }
    </style>
  </defs>
  <g id="g5">
    <path id="path7" class="cls-1" d="M127.05,0S47.52,0,27.63,5.23c-10.68,2.93-19.47,11.72-22.4,22.61C0,47.73,0,88.96,0,88.96c0,0,0,41.44,5.23,61.12,2.93,10.88,11.52,19.47,22.4,22.4,20.09,5.44,99.42,5.44,99.42,5.44,0,0,79.54,0,99.43-5.23,10.88-2.93,19.47-11.52,22.4-22.4,5.23-19.89,5.23-61.12,5.23-61.12,0,0,.21-41.44-5.23-61.33-2.93-10.88-11.52-19.47-22.4-22.4C206.6,0,127.05,0,127.05,0ZM101.73,50.87l66.14,38.09-66.14,38.09V50.87Z"/>
  </g>
</svg>